<?xml version="1.0" encoding="iso-8859-1"?>
<!-- Generator: Adobe Illustrator 16.0.0, SVG Export Plug-In . SVG Version: 6.00 Build 0)  -->
<!DOCTYPE svg PUBLIC "-//W3C//DTD SVG 1.1//EN" "http://www.w3.org/Graphics/SVG/1.1/DTD/svg11.dtd">
<svg version="1.1" id="Capa_1" xmlns="http://www.w3.org/2000/svg" xmlns:xlink="http://www.w3.org/1999/xlink" x="0px" y="0px"
	 fill="#666" width="45.582px" height="45.581px" viewBox="0 0 45.582 45.581" style="enable-background:new 0 0 45.582 45.581;"
	 xml:space="preserve">
<g>
	<g>
		<path d="M31.781,17.465c1.178,0,2.334,0.133,3.439,0.382v-7.031c0-0.422-0.195-0.824-0.516-1.101
			c-0.32-0.276-0.75-0.4-1.168-0.341L32.15,9.572c-0.236-1.015-0.728-1.96-1.469-2.826c-2.807-3.275-8.793-4.625-12.476-5.162
			c0.03-0.337-0.056-0.686-0.27-0.981c-0.472-0.651-1.381-0.797-2.033-0.328c0,0-14.051,10.189-14.227,10.318
			c-0.316,0.234-0.457,0.651-0.457,1.053v28.667c0,0.522,0.286,1.006,0.739,1.266L7.04,44.48c0.634,0.362,1.371,0.502,2.094,0.399
			l11.048-1.578c-2.446-2.744-3.93-6.359-3.93-10.315C16.253,24.429,23.222,17.465,31.781,17.465z M8.345,12.972
			c-0.21,0.03-0.422-0.01-0.605-0.115l-1.915-1.093c-0.104-0.06-0.17-0.167-0.176-0.288c-0.008-0.119,0.048-0.234,0.145-0.304
			l9.658-6.979c3.175,0.251,10.417,1.413,13.016,4.448c0.365,0.427,0.619,0.874,0.77,1.347L8.345,12.972z"/>
		<path d="M42.126,25.822c-0.154-0.225-0.396-0.373-0.666-0.411c-0.271-0.038-0.543,0.04-0.754,0.212l-6.188,5.067
			c-0.342,0.28-0.453,0.758-0.27,1.16c0.158,0.347,0.246,0.73,0.246,1.136c0,0.324,0.229,0.602,0.545,0.664l8.08,1.614
			c0.268,0.053,0.545-0.008,0.767-0.168c0.22-0.161,0.364-0.407,0.396-0.678c0.053-0.47,0.08-0.947,0.08-1.431
			C44.363,30.326,43.537,27.855,42.126,25.822z"/>
		<path d="M31.77,35.717c-1.508,0-2.747-1.222-2.747-2.729c0-1.243,0.824-2.292,1.955-2.621c0.417-0.122,0.702-0.503,0.702-0.938
			v-8.014c0-0.274-0.114-0.535-0.317-0.72c-0.201-0.186-0.474-0.275-0.746-0.251c-6.371,0.57-11.458,5.969-11.458,12.544
			c0,6.954,5.646,12.593,12.603,12.593c3.733,0,7.092-1.626,9.399-4.208c0.123-0.141,0.186-0.324,0.17-0.51
			c-0.018-0.187-0.108-0.358-0.256-0.475l-6.711-5.308c-0.252-0.198-0.607-0.195-0.854,0.009
			C33.039,35.48,32.432,35.717,31.77,35.717z"/>
	</g>
</g>
<g>
</g>
<g>
</g>
<g>
</g>
<g>
</g>
<g>
</g>
<g>
</g>
<g>
</g>
<g>
</g>
<g>
</g>
<g>
</g>
<g>
</g>
<g>
</g>
<g>
</g>
<g>
</g>
<g>
</g>
</svg>
