<?xml version="1.0" encoding="iso-8859-1"?>
<!-- Generator: Adobe Illustrator 19.0.0, SVG Export Plug-In . SVG Version: 6.00 Build 0)  -->
<svg version="1.1" id="Capa_1" xmlns="http://www.w3.org/2000/svg" xmlns:xlink="http://www.w3.org/1999/xlink" x="0px" y="0px"
	 fill="#666" viewBox="0 0 490 490" style="enable-background:new 0 0 490 490;" xml:space="preserve">
<g>
	<path d="M483.754,25.463C445.162,8.563,404.402,0,362.619,0C322.098,0,282.551,8.077,245,23.978C207.45,8.077,167.902,0,127.377,0
		C85.594,0,44.838,8.563,6.246,25.463C2.449,27.123,0,30.87,0,35.013v319.536c0,3.523,1.776,6.802,4.72,8.726
		c2.957,1.934,6.673,2.25,9.885,0.825c71.879-31.46,153.449-30.939,225.549,0c3.189,1.369,7.939,0.806,9.692,0
		c71.285-32.783,153.659-31.46,225.548,0c3.212,1.415,6.929,1.099,9.886-0.825c2.942-1.924,4.719-5.203,4.719-8.726V35.013
		C490,30.87,487.552,27.123,483.754,25.463z M233.908,339.043c-34.215-12.951-69.98-19.507-106.531-19.507
		c-36.551,0-72.312,6.557-106.526,19.507V41.916c68.174-27.957,144.903-27.947,213.057,0V339.043z M469.149,339.043
		c-34.219-12.951-69.98-19.507-106.53-19.507c-36.551,0-72.313,6.557-106.526,19.507V41.916c68.163-27.957,144.893-27.957,213.056,0
		V339.043z"/>
	<path d="M245,403.939C168.804,371.95,82.05,372.54,6.246,405.73l8.359,19.101c71.879-31.46,154.337-31.46,226.215,0
		c1.329,0.58,2.754,0.875,4.179,0.875s2.851-0.295,4.18-0.875c71.869-31.471,154.316-31.471,226.215,0l8.359-19.101
		C407.95,372.54,321.191,371.95,245,403.939z"/>
	<path d="M245,468.232c-76.206-31.989-162.95-31.377-238.754,1.792l8.359,19.1c71.879-31.459,154.337-31.459,226.215,0
		c1.334,0.581,2.754,0.876,4.179,0.876s2.846-0.295,4.18-0.876c71.869-31.459,154.316-31.469,226.215,0l8.359-19.1
		C407.95,436.844,321.191,436.254,245,468.232z"/>
</g>
<g>
</g>
<g>
</g>
<g>
</g>
<g>
</g>
<g>
</g>
<g>
</g>
<g>
</g>
<g>
</g>
<g>
</g>
<g>
</g>
<g>
</g>
<g>
</g>
<g>
</g>
<g>
</g>
<g>
</g>
</svg>
