<?xml version="1.0" encoding="iso-8859-1"?>
<!-- Generator: Adobe Illustrator 19.0.0, SVG Export Plug-In . SVG Version: 6.00 Build 0)  -->
<svg xmlns="http://www.w3.org/2000/svg" xmlns:xlink="http://www.w3.org/1999/xlink" version="1.1" id="Capa_1" x="0px" y="0px" viewBox="0 0 545.805 545.805" style="enable-background:new 0 0 545.805 545.805;" xml:space="preserve" width="512px" height="512px">
<g>
	<g>
		<path d="M459.285,83.479l-21.657,21.657V20.751H0v504.303h437.65V278.177l108.156-108.199L459.285,83.479z M410.967,498.414    c-23.987,0-360.254,0-384.283,0c0-24.548,0-426.476,0-451.067c24.03,0,360.297,0,384.283,0c0,6.471,0,39.324,0,84.45    L134.99,407.796l86.52,86.52l189.456-189.478C410.967,399.922,410.967,487.392,410.967,498.414z M382.838,227.032l-15.79,15.811    l-25.626-25.583l15.747-15.855L382.838,227.032z M338.553,271.296l-15.79,15.833l-25.626-25.626l15.79-15.855L338.553,271.296z     M294.333,315.624L278.5,331.37l-25.605-25.583l15.79-15.79L294.333,315.624z M250.005,359.865l-15.811,15.855l-25.626-25.626    l15.855-15.747L250.005,359.865z M205.742,404.172l-15.833,15.725l-25.626-25.626l15.811-15.725L205.742,404.172z     M411.312,198.602l-25.626-25.648l15.876-15.833l25.583,25.561L411.312,198.602z M430.035,128.648l15.79-15.811l25.626,25.54    l-15.79,15.898L430.035,128.648z" fill="#FFFFFF"/>
	</g>
	<g>
	</g>
	<g>
	</g>
	<g>
	</g>
	<g>
	</g>
	<g>
	</g>
	<g>
	</g>
	<g>
	</g>
	<g>
	</g>
	<g>
	</g>
	<g>
	</g>
	<g>
	</g>
	<g>
	</g>
	<g>
	</g>
	<g>
	</g>
	<g>
	</g>
</g>
<g>
</g>
<g>
</g>
<g>
</g>
<g>
</g>
<g>
</g>
<g>
</g>
<g>
</g>
<g>
</g>
<g>
</g>
<g>
</g>
<g>
</g>
<g>
</g>
<g>
</g>
<g>
</g>
<g>
</g>
</svg>
