<?xml version="1.0" encoding="iso-8859-1"?>
<!-- Generator: Adobe Illustrator 16.0.0, SVG Export Plug-In . SVG Version: 6.00 Build 0)  -->
<!DOCTYPE svg PUBLIC "-//W3C//DTD SVG 1.1//EN" "http://www.w3.org/Graphics/SVG/1.1/DTD/svg11.dtd">
<svg version="1.1" id="Capa_1" xmlns="http://www.w3.org/2000/svg" xmlns:xlink="http://www.w3.org/1999/xlink" x="0px" y="0px"
	 width="950.1px" height="950.099px" viewBox="0 0 950.1 950.099" fill="#666" style="enable-background:new 0 0 950.1 950.099;"
	 xml:space="preserve">
<g>
	<g>
		<path d="M395,140v297.6h-91.5l0.1,75H395v297.6c0,39.4,34.2,71.5,76.3,71.5h269.3v-75H471.3c-0.5,0-0.9,0-1.3-0.1v-294h257.5v-75
			H470v-294c0.399-0.1,0.8-0.1,1.3-0.1h269.3v-75H471.3C429.2,68.5,395,100.6,395,140z"/>
		<circle cx="139.4" cy="247" r="58.7"/>
		<path d="M278.6,437.6l-0.1-57.5c1.3-29.7-15.1-47.5-40.8-47.5h-44c-6.5,0-12.4,3.8-15.2,9.7L155.9,391.7l-7-14.7l-4.5-9.4
			l12.9-27.1c1.3-2.7,0.2-5.8-2.2-7.2c-0.8-0.5-1.8-0.8-2.9-0.8h-25.7c-1.1,0-2,0.3-2.9,0.8c-2.3,1.4-3.5,4.5-2.2,7.2l12.9,27.1
			l-4.5,9.4l-7,14.7L100.3,342.3c-2.7-5.9-8.6-9.7-15.2-9.7h-44c-25.6,0-42.1,17.8-40.8,47.5L0,564C0,577.2,12,583.7,23.9,583.7
			c11.7,0,23.3-6.3,23.3-18.6l0.3-146l19,0.1l0.8,375.4c0,18.9,16,28.3,32,28.3s32.1-9.5,32.1-28.5V608.7h16.3v185.7
			c0,19,16,28.5,32.1,28.5c16,0,32-9.399,32-28.3l0.6-375.5l19,0.1L231.7,565c0,12.399,11.6,18.6,23.3,18.6
			c11.9,0,23.9-6.5,23.9-19.7l-0.1-51.3L278.6,437.6z"/>
		<path d="M904.899,19.4H822.2c-25,0-45.2,20.3-45.2,45.2v82.7c0,25,20.3,45.2,45.2,45.2h82.699c25,0,45.2-20.3,45.2-45.2V64.6
			C950.1,39.7,929.899,19.4,904.899,19.4z"/>
		<path d="M904.899,388.5H822.2c-25,0-45.2,20.3-45.2,45.199v82.7c0,25,20.3,45.2,45.2,45.2h82.699c25,0,45.2-20.3,45.2-45.2v-82.7
			C950.1,408.8,929.899,388.5,904.899,388.5z"/>
		<path d="M904.899,757.6H822.2c-25,0-45.2,20.3-45.2,45.2v82.7c0,25,20.3,45.199,45.2,45.199h82.699c25,0,45.2-20.3,45.2-45.199
			v-82.7C950.1,777.9,929.899,757.6,904.899,757.6z"/>
	</g>
</g>
<g>
</g>
<g>
</g>
<g>
</g>
<g>
</g>
<g>
</g>
<g>
</g>
<g>
</g>
<g>
</g>
<g>
</g>
<g>
</g>
<g>
</g>
<g>
</g>
<g>
</g>
<g>
</g>
<g>
</g>
</svg>
