<?xml version="1.0" encoding="iso-8859-1"?>
<!-- Generator: Adobe Illustrator 16.0.0, SVG Export Plug-In . SVG Version: 6.00 Build 0)  -->
<!DOCTYPE svg PUBLIC "-//W3C//DTD SVG 1.1//EN" "http://www.w3.org/Graphics/SVG/1.1/DTD/svg11.dtd">
<svg version="1.1" id="Capa_1" xmlns="http://www.w3.org/2000/svg" xmlns:xlink="http://www.w3.org/1999/xlink" x="0px" y="0px"
	 width="167.232px" height="167.231px" viewBox="0 0 167.232 167.231" fill="#666" style="enable-background:new 0 0 167.232 167.231;"
	 xml:space="preserve">
<g>
	<g>
		<g>
			<path d="M128.383,58.803c0-0.131-0.061-0.231-0.061-0.356l-11.643-42.38c-0.347-3.185-3.556-5.8-7.124-5.8H18.825
				c-3.565,0-6.777,2.615-7.127,5.8L0.064,58.446C0.064,58.571,0,58.672,0,58.803V70.47c0,3.029,1.19,5.778,3.093,7.855
				L0.064,95.855C0.064,95.983,0,96.087,0,96.215v11.667c0,3.025,1.19,5.778,3.093,7.854l-3.029,17.53
				c0,0.129-0.064,0.232-0.064,0.359v11.667c0,6.437,5.24,11.673,11.667,11.673h105.05c6.431,0,11.667-5.236,11.667-11.673v-11.667
				c0-0.127-0.061-0.23-0.061-0.359l-3.032-17.53c1.899-2.076,3.093-4.816,3.093-7.854V96.215c0-0.128-0.061-0.231-0.061-0.359
				l-3.032-17.531c1.899-2.077,3.093-4.82,3.093-7.855V58.803z M122.55,145.293c0,3.222-2.631,5.84-5.834,5.84H11.667
				c-3.206,0-5.836-2.618-5.836-5.84v-11.667c0-3.221,2.63-5.839,5.836-5.839h105.05c3.209,0,5.84,2.618,5.84,5.839v11.667H122.55z
				 M122.55,107.882c0,3.221-2.631,5.839-5.834,5.839H11.667c-3.206,0-5.836-2.618-5.836-5.839V96.215c0-3.222,2.63-5.84,5.836-5.84
				h105.05c3.209,0,5.84,2.618,5.84,5.84v11.667H122.55z M122.55,70.47c0,3.218-2.631,5.843-5.834,5.843H11.667
				c-3.206,0-5.836-2.625-5.836-5.843V58.803c0-3.218,2.63-5.843,5.836-5.843h105.05c3.209,0,5.84,2.625,5.84,5.843V70.47H122.55z"
				/>
			<path d="M18.419,135.265c2.317,0,4.195,1.881,4.195,4.201c0,2.314-1.878,4.189-4.195,4.189s-4.195-1.875-4.195-4.189
				C14.224,137.146,16.103,135.265,18.419,135.265z"/>
			<path d="M18.419,97.853c2.317,0,4.195,1.882,4.195,4.201c0,2.314-1.878,4.189-4.195,4.189s-4.195-1.875-4.195-4.189
				C14.224,99.734,16.103,97.853,18.419,97.853z"/>
			<circle cx="18.419" cy="64.639" r="4.196"/>
		</g>
		<polygon points="167.232,84.262 164.638,84.262 164.638,50.884 164.638,47.766 161.521,47.766 137.59,47.766 137.59,50.884 
			161.521,50.884 161.521,84.262 158.92,84.262 158.92,94.528 137.59,94.528 137.59,97.646 158.92,97.646 158.92,107.912 
			161.521,107.912 161.521,141.292 137.59,141.292 137.59,144.41 161.521,144.41 164.638,144.41 164.638,141.292 164.638,107.912 
			167.232,107.912 		"/>
	</g>
</g>
<g>
</g>
<g>
</g>
<g>
</g>
<g>
</g>
<g>
</g>
<g>
</g>
<g>
</g>
<g>
</g>
<g>
</g>
<g>
</g>
<g>
</g>
<g>
</g>
<g>
</g>
<g>
</g>
<g>
</g>
</svg>
