<?xml version="1.0" encoding="iso-8859-1"?>
<!-- Generator: Adobe Illustrator 18.0.0, SVG Export Plug-In . SVG Version: 6.00 Build 0)  -->
<!DOCTYPE svg PUBLIC "-//W3C//DTD SVG 1.1//EN" "http://www.w3.org/Graphics/SVG/1.1/DTD/svg11.dtd">
<svg version="1.1" id="Capa_1" xmlns="http://www.w3.org/2000/svg" xmlns:xlink="http://www.w3.org/1999/xlink" x="0px" y="0px"
	 viewBox="0 0 316.709 316.709" fill="#666" style="enable-background:new 0 0 316.709 316.709;" xml:space="preserve">
<g>
	<path d="M153.762,245.916c-7.329-12.533-20.909-20.318-35.44-20.318c-7.241,0-14.39,1.942-20.668,5.615
		c-1.843,1.076-3.591,2.288-5.233,3.626l-32.734-55.976c1.973-0.776,3.885-1.704,5.725-2.781
		c9.458-5.529,16.196-14.411,18.973-25.01c2.777-10.598,1.261-21.644-4.27-31.102l-3.513-6.004
		c-7.328-12.533-20.908-20.319-35.441-20.319c-7.24,0-14.389,1.942-20.67,5.615c-11.983,7.005-19.55,19.471-20.255,33.357
		c-2.102,24.809,10.002,63.149,31.603,100.087c21.599,36.937,49.076,66.287,71.73,76.623c5.676,2.824,12.018,4.316,18.35,4.317
		c7.235,0,14.379-1.941,20.655-5.612c9.458-5.531,16.195-14.413,18.973-25.012c2.776-10.599,1.26-21.643-4.271-31.099
		L153.762,245.916z"/>
	<path d="M316.709,138.894c-0.054-36.335-14.253-70.473-39.982-96.127C251.05,17.163,216.941,3.062,180.683,3.062h-0.202
		c-36.335,0.053-70.475,14.252-96.13,39.981c-9.754,9.782-17.918,20.896-24.265,33.035c-0.615,1.175-0.737,2.546-0.341,3.811
		c0.396,1.266,1.279,2.322,2.454,2.936l8.862,4.634c1.176,0.615,2.547,0.737,3.813,0.341c1.265-0.396,2.321-1.28,2.936-2.455
		c5.409-10.347,12.375-19.828,20.703-28.18c21.884-21.947,51.004-34.058,81.989-34.103h0.181c30.926,0,60.02,12.027,81.922,33.867
		c21.946,21.882,34.058,51.001,34.104,81.994c0.045,30.993-11.98,60.147-33.863,82.093c-16.083,16.128-36.35,27.035-58.335,31.635
		l12.412-18.332c1.549-2.287,0.95-5.395-1.337-6.943l-8.28-5.606c-2.285-1.549-5.395-0.949-6.943,1.337l-28.431,41.989
		c-0.743,1.098-1.021,2.446-0.77,3.749c0.251,1.302,1.009,2.452,2.107,3.195l41.99,28.428c0.858,0.582,1.834,0.86,2.799,0.86
		c1.603,0,3.178-0.77,4.145-2.197l5.606-8.28c0.743-1.098,1.021-2.446,0.77-3.748c-0.251-1.302-1.009-2.452-2.106-3.195
		l-17.393-11.775c25.599-5.448,49.187-18.198,67.929-36.992C302.663,209.409,316.761,175.228,316.709,138.894z"/>
	<path d="M156.747,130.713l-35.468,44.159c-1.204,1.499-1.441,3.558-0.61,5.292c0.832,1.735,2.585,2.838,4.509,2.838h62.726
		c2.762,0,5-2.239,5-5v-10c0-2.761-2.238-5-5-5h-31.439l15.7-19.55c20.327-23.948,19.474-40.307,15.175-49.817
		c-4.511-9.98-14.991-16.309-27.344-16.518c-14.247-0.275-27.364,7.573-33.399,19.809c-1.222,2.477-0.204,5.474,2.272,6.696
		l8.968,4.424c2.477,1.223,5.474,0.205,6.695-2.271c3.154-6.393,10.009-8.661,14.92-8.661l0.2,0.001
		c4.613,0.078,8.151,1.857,9.463,4.759c2.04,4.513-0.113,14.431-12.277,28.73C156.806,130.64,156.777,130.677,156.747,130.713z"/>
	<path d="M246.153,79.612h-6.036c-1.546,0-3.004,0.715-3.951,1.936l-54.989,70.91c-1.17,1.508-1.379,3.55-0.539,5.264
		c0.84,1.713,2.582,2.8,4.49,2.8h46.025v17.292c0,2.761,2.239,5,5,5h10c2.762,0,5-2.239,5-5v-17.292h4.686c2.762,0,5-2.239,5-5v-10
		c0-2.761-2.238-5-5-5h-4.686v-55.91C251.153,81.851,248.915,79.612,246.153,79.612z M231.153,121.346v19.176h-16.031
		L231.153,121.346z"/>
</g>
<g>
</g>
<g>
</g>
<g>
</g>
<g>
</g>
<g>
</g>
<g>
</g>
<g>
</g>
<g>
</g>
<g>
</g>
<g>
</g>
<g>
</g>
<g>
</g>
<g>
</g>
<g>
</g>
<g>
</g>
</svg>
