<?xml version="1.0" standalone="no"?>
<!DOCTYPE svg PUBLIC "-//W3C//DTD SVG 1.1//EN" "http://www.w3.org/Graphics/SVG/1.1/DTD/svg11.dtd">
<svg xmlns="http://www.w3.org/2000/svg">
<metadata>Generated by Fontastic.me</metadata>
<defs>
<font id="threesixty" horiz-adv-x="512">
<font-face font-family="threesixty" units-per-em="512" ascent="480" descent="-32"/>
<missing-glyph horiz-adv-x="512" />

<glyph unicode="&#57374;" d="M429 184l-42 0 0 51-51 0 0 42 51 0 0 51 42 0 0-51 51 0 0-42-51 0z m-13-120l-384 0c0 0 0 26 2 40 2 11 17 25 81 49 63 23 60 12 60 55 0 28-14 11-23 64-4 21-6 7-14 40-4 17 3 19 2 27-1 8-2 16-4 33-2 21 18 76 88 76 70 0 90-55 88-76-2-17-3-25-4-33-1-8 6-10 2-27-8-33-10-19-14-40-9-53-23-36-23-64 0-43-3-32 60-55 64-24 79-38 81-49 2-14 2-40 2-40z"/>
<glyph unicode="&#57344;" d="M95 216c-20 18-22 49-3 70 18 20 49 22 70 3 20-18 22-50 3-70-18-20-50-22-70-3z m120-83c-12 11-13 30-2 43 21 23 31 53 29 82-1 29-14 58-37 79-12 11-13 30-2 43 9 9 23 12 34 7 0 0 0 0 0 0 1 0 1-1 2-1-1 0-1 1-2 1 3-2 6-4 9-6 0 0 0 0-1 1 1-1 1-1 1-1 0 0 0 0 0 0 35-32 54-76 57-120 2-45-13-90-45-126-12-12-31-13-43-2z m95-81c-12 11-13 30-2 42 44 49 64 110 61 170-3 61-29 120-77 164-13 11-14 30-2 42 11 12 30 13 42 2 61-55 94-129 97-205 4-75-21-153-76-213-11-13-30-14-43-2z"/>
<glyph unicode="&#57345;" d="M75 469l395 0 0 15-399 0c-8 0-14-5-17-10-18-32-18-82 0-114 3-5 9-9 17-9l399 0 0 15-395 0c-5 0-7 0-9 4-14 30-14 65 0 95 2 3 4 4 9 4m-27-141l395 0 0 15-399 0c-8 0-14-4-17-9-18-39-18-105 0-144 3-5 9-9 17-9l399 0 0 15-395 0c-4 0-7 0-9 4-14 36-14 88 0 124 2 4 5 4 9 4m54-170l395 0 0 15-399 0c-8 0-15-4-17-9-10-21-14-43-14-65 0-21 4-43 14-64 2-5 9-9 17-9l399 0 0 14-395 0c-5 0-8 1-9 5-8 18-11 36-11 54 0 19 3 37 11 55 1 4 4 4 9 4m-25 222c-13 20-12 55 0 74l380 0c-13-19-14-54 0-74z m407-236l-380 0c-12-26-13-63 0-89l380 0c-19 23-18 65 0 89m-54 170l-380 0c-12-26-13-78 0-104l380 0c-18 24-17 80 0 104"/>
<glyph unicode="&#57346;" d="M52 282c-31-29-31-75 0-104 31-29 81-29 111 0 31 29 31 75 0 104-30 29-80 29-111 0m-3-129l0-118 59 55 58-55 0 118c-17-11-37-18-58-18-22 0-42 6-59 18m348-3l-166 0c-7 0-13-5-13-12 0-7 6-12 13-12l166 0c7 0 13 5 13 12 0 7-6 12-13 12m0 50l-166 0c-7 0-13-5-13-12 0-6 6-12 13-12l166 0c7 0 13 6 13 12 0 7-6 12-13 12m0 51l-166 0c-7 0-13-6-13-12 0-7 6-13 13-13l166 0c7 0 13 6 13 13 0 6-6 12-13 12m82 86l-156 145c-3 3-7 4-11 4l-168 0c-38 0-69-28-69-64l0-102c10 3 21 4 32 4l0 98c0 20 16 35 37 35l148 0 0-82c0-36 31-65 68-65l92 0 0-220c0-20-16-35-37-35l-226 0 0-29c65 0 226 0 226 0l0 0c0 0 0 0 0 0 38 0 68 28 68 64l0 237c0 4-1 7-4 10m-119 3c-20 0-37 15-37 35l0 66 109-101z m-197 55l76 0c7 0 13 5 13 12 0 7-6 12-13 12l-76 0c-7 0-13-5-13-12 0-7 6-12 13-12m0-51l76 0c7 0 13 6 13 13 0 6-6 12-13 12l-76 0c-7 0-13-6-13-12 0-7 6-13 13-13"/>
<glyph unicode="&#57347;" d="M196 289c0-45-32-83-74-91-2-1 25-12 31-44 8-45 38-96-50-96-88 0-70 46-51 100 10 31 38 39 36 39-44 7-78 46-78 92 0 52 42 94 93 94 51 0 93-42 93-94z m176-170c-16-30-51-43-78-29l-90 48c-27 14-35 50-19 80l122 231c16 30 50 43 77 29l90-48c27-14 36-50 20-80z m-79 26c5 12 0 26-12 32l-17 7c-12 6-27 0-32-12-5-12 0-26 12-31l17-8c12-5 26 0 32 12z m178 214c12 22 4 48-16 59l-70 37c-21 11-47 2-59-19l-89-168c-11-22-4-49 17-60l70-37c21-11 47-2 58 20z"/>
<glyph unicode="&#57348;" d="M160 191c0-36-26-67-60-74-1 0 20-9 25-34 7-37 31-78-40-78-71 0-56 37-41 80 8 26 30 32 29 32-36 6-63 37-63 74 0 42 34 75 75 75 41 0 75-33 75-75z m62-168c-12-10-28-9-37 1l-28 36c-9 11-6 27 6 36l91 74c11 10 28 9 37-2l28-35c9-11 6-27-6-37z m76 88c6 5 7 14 2 20l-18 22c-5 6-14 8-20 3l-46-38c-6-5-7-14-2-20l18-22c5-6 14-7 20-2z m-108-57c2 2 3 5 1 7l-2 2c-1 2-4 1-7-1-2-2-3-5-1-6l2-3c1-1 5-1 7 1z m-9 12c2 2 3 5 1 7l-2 3c-1 1-4 1-7-1-2-2-3-5-1-7l2-2c1-2 4-2 7 0z m19-24c2 2 3 5 1 7l-2 2c-1 2-5 2-7 0-2-2-3-5-1-7l2-2c1-2 4-2 7 0z m5 25c2 2 3 5 1 6l-2 3c-1 1-4 1-7-1-2-2-2-5-1-6l2-3c2-2 5-1 7 1z m-9 12c2 2 3 5 1 7l-2 2c-1 2-4 2-7 0-2-2-3-5-1-7l2-2c1-2 5-2 7 0z m19-24c2 2 3 5 1 7l-2 2c-1 2-4 1-7-1-2-2-3-5-1-6l2-3c1-1 4-1 7 1z m234 427c75-39 67-112-17-162-27-17-59-29-92-36-12-3-43-77-64-77-12 0 6 68-5 68-47-2-92 6-126 24-75 40-67 112 17 163 84 51 213 60 287 20z m-275-26c-77-46-85-113-17-149 32-16 73-21 116-22 19-1-2-67 8-66 11 2 45 72 55 74 30 7 60 18 84 33 77 46 85 113 17 149-69 36-186 27-263-19z"/>
<glyph unicode="&#57349;" d="M214 469l0-118 24 21 0 73 156 0 0-120-120 0-29-24 173 0 0 168z m-105-106c0-23 18-41 40-41 22 0 39 18 39 41 0 22-17 41-39 41-22 0-40-19-40-41m177 6c-2 3-4 4-6 5l0 28c0 3-2 5-5 5-3 0-5-2-5-5l0-27c-2 0-3-1-5-2l-78-61c-14 0-34 0-37 0-28 0-50-20-50-45l0-35 88 0 0 43 95 73c7 5 8 15 3 21m-144-192c0-22-17-41-39-41-22 0-39 19-39 41 0 23 17 41 39 41 22 0 39-18 39-41m103 0c0-22-18-41-39-41-22 0-40 19-40 41 0 23 18 41 40 41 21 0 39-18 39-41m102 0c0-22-17-41-39-41-22 0-40 19-40 41 0 23 18 41 40 41 22 0 39-18 39-41m103 0c0-22-18-41-40-41-21 0-39 19-39 41 0 23 18 41 39 41 22 0 40-18 40-41m-41-53c-23 0-43-9-51-23-8 14-28 23-51 23-24 0-44-9-51-23-8 14-28 23-52 23-23 0-43-9-51-23-8 14-28 23-51 23-30 0-55-14-55-37l0-41 417 0 0 41c0 23-25 37-55 37"/>
<glyph unicode="&#57350;" d="M255 499c-133 0-241-108-241-241 0-133 108-241 241-241 133 0 241 108 241 241 0 133-108 241-241 241z m145-282c0-16-14-30-30-30-16 0-29 14-29 30 0 17 13 31 29 31 16 0 30-14 30-31z m-176 218l152 0 0-126-129 0 22 19 89 0 0 89-117 0 0-54-17-16z m99-218c0-16-13-30-29-30-16 0-29 14-29 30 0 17 13 31 29 31 16 0 29-14 29-31z m-148 169c17 0 30-14 30-30 0-17-13-31-30-31-16 0-29 14-29 31 0 16 13 30 29 30z m-36-101c0 18 17 33 37 33 2 0 18 0 28 0l58 45c1 1 2 1 4 2l0 20c0 2 1 4 3 4 2 0 4-2 4-4l0-21c2 0 3-2 5-3 3-5 2-13-3-16l-70-55 0-32-66 0z m108-68c0-16-13-30-29-30-17 0-30 14-30 30 0 17 13 31 30 31 16 0 29-14 29-31z m-106 31c17 0 30-14 30-31 0-16-13-30-30-30-16 0-29 14-29 30 0 17 13 31 29 31z m269-129l-310 0 0 31c0 17 18 28 40 28 18 0 33-7 39-18 5 11 20 18 38 18 17 0 32-7 38-18 6 11 21 18 38 18 18 0 33-7 38-18 6 11 21 18 38 18 23 0 41-11 41-28z"/>
<glyph unicode="&#57351;" d="M65 65c0-1 0-2 0-3 0-21 23-38 51-38l263 0c28 0 51 17 51 38 0 1-1 2-1 3z m329 214c0 0 0 0-1 0l0 25c0 1-1 4-3 4l-294 0c-2 0-4-2-4-4l0-146c0-39 32-71 71-71l159 0c39 0 71 32 71 71l0 1c1 0 1-1 1-1 34 0 61 27 61 61 0 33-27 60-61 60m-231-167c-26 0-48 22-48 48l0 114c0 5 4 10 9 10 5 0 9-5 9-10l0-114c0-16 14-30 30-30l0 0c5 0 10-4 10-9 0-5-5-9-10-9m231 76c0 0 0 0-1 0l0 62c1 0 1 0 1 0 18 0 32-14 32-31 0-17-14-31-32-31m-192 186c0 0-17 44 4 64 25 24 27 59 27 59 0 0 9-56-7-74-16-19-20-31-24-49m43-48c0 0-23 57 5 84 32 31 34 77 34 77 0 0 16-70-5-95-21-25-29-42-34-66"/>
<glyph unicode="&#57352;" d="M259 486c-125 1-223-99-227-218-3-132 102-234 226-234 126 0 226 103 227 224 1 126-102 229-226 228z m-89-54c19-33 36-65 54-97-2-3-4-4-7-7-22 31-43 61-65 92 7 4 12 8 18 12z m14-141c-3-8-4-17-7-27-10 1-21 3-32 4-10 1-20 2-30 4-14 1-28 3-42 6-1 0-3 4-3 6 2 33 13 63 33 90 6 9 14 18 23 27 24-29 48-58 72-86-5-8-10-16-14-24z m74-90c-34 0-59 26-59 60 0 32 25 58 60 58 33 0 58-26 59-60 0-32-27-59-60-58z m96-114c-6 9-11 18-15 27-12 20-23 40-34 60-5 10-5 10 5 17 21-30 42-60 63-91-6-4-13-8-19-13z m42 34c-24 28-48 57-72 85 11 14 17 30 19 48 35-5 70-10 106-14-1-47-19-86-53-119z m-136 103c-21-2-38 18-38 35-1 20 16 38 36 38 19 0 38-13 38-39 0-16-15-35-36-34z"/>
<glyph unicode="&#57353;" d="M484 258c0-126-103-228-229-228-126 0-228 102-228 228 0 126 102 229 228 229 126 0 229-103 229-229z m-229 24c-13 0-24-12-24-25 1-11 11-23 25-22 13 0 23 11 23 22 0 16-12 25-24 25z m1 122c-81 0-144-64-146-141-3-85 65-150 145-150 81-1 145 66 146 144 1 81-66 147-145 147z m-58-35c12-21 23-42 35-63-2-1-3-2-5-4-14 20-27 39-41 59 4 3 8 5 11 8z m9-91c-2-5-3-11-4-17-7 1-14 1-21 2-6 1-13 2-19 3-9 1-18 2-27 3-1 0-2 3-2 4 1 22 8 41 21 58 4 6 9 12 15 18 16-19 31-37 46-55-3-6-6-11-9-16z m48-58c-22 0-38 17-38 38 0 21 16 38 38 38 21 0 38-16 38-38 0-21-17-39-38-38z m61-73c-3 6-6 11-9 17-8 13-15 26-22 39-3 6-3 6 3 11 14-20 27-39 41-59-4-3-8-5-13-8z m28 21c-16 19-31 37-47 55 8 9 11 20 12 31 23-3 46-6 69-9-1-30-13-55-34-77z"/>
<glyph unicode="&#57354;" d="M326 88l-256 0 0 239 68 0 0 79c0 4 1 8 4 11 2 3 5 5 12 6l172 0 0-112 32 0 0 150-228 0c-9 0-16-5-19-10l-67-86c-4-5-6-12-6-20l0-294 320 0 0 37z m-110 144l-17 0 0-25 17 0c8 0 14 4 14 12 0 10-6 13-14 13z m89-1l-12 0 0-54 12 0c19 0 27 8 27 27 0 18-10 27-27 27z m137 53l-276 0c-18 0-32-11-32-25l0-117c0-14 14-25 32-25l276 0c18 0 32 11 32 25l0 117c0 14-14 25-32 25z m-222-96l-21 0 0-33-25 0 0 98 46 0c18 0 35-9 35-32 0-24-14-33-35-33z m89-33l-42 0 0 98 42 0c30 0 48-19 48-49 0-32-18-49-48-49z m134 77l-47 0 0-20 41 0 0-19-41 0 0-38-25 0 0 98 72 0z"/>
<glyph unicode="&#57355;" d="M353 205l18 0 0 25 28 0 0 13-28 0 0 13 31 0 0 15-49 0z m-97 275c-122 0-221-99-221-222 0-122 99-222 221-222 123 0 222 100 222 222 0 123-99 222-222 222z m88-348l-221 0 0 203c0 5 2 10 5 14l46 59c2 3 7 7 13 7l157 0 0-103-22 0 0 77-119 0c-4-1-7-2-8-4-2-2-3-5-3-8l0-55-47 0 0-165 199 0 0-25z m59 45l-192 0c-12 0-22 8-22 17l0 82c0 9 10 16 22 16l192 0c12 0 22-7 22-16l0-82c0-9-10-17-22-17z m-154 94l-31 0 0-66 18 0 0 20 13 0c15 0 24 7 24 24 0 16-11 22-24 22z m-3-31l-11 0 0 17 11 0c6 0 10-3 10-9 0-6-4-8-10-8z m65 31l-29 0 0-66 29 0c20 0 33 11 33 33 0 21-13 33-33 33z m-3-52l-9 0 0 37 9 0c12 0 18-6 18-18 0-14-5-19-18-19z"/>
<glyph unicode="&#57356;" d="M251 403l-14 14-57-57-20 20-14-14 34-34z m-125-212l0-94 94 0 0 94z m82-82l-69 0 0 70 69 0z m-82 190l0-93 94 0 0 93z m82-81l-69 0 0 69 69 0z m190 147c0 10-6 19-12 19l-125 0c-7 0-12-9-12-19 0-11 5-20 12-20l125 0c6 0 12 9 12 20m0-106c0 10-6 19-12 19l-125 0c-7 0-12-9-12-19 0-11 5-20 12-20l125 0c6 0 12 9 12 20m0-106c0 10-6 19-12 19l-125 0c-7 0-12-9-12-19 0-11 5-20 12-20l125 0c6 0 12 9 12 20m-178 204l0-43-94 0 0 93 87 0-12-12-62 0 0-69 69 0 0 19z m188-333l-296 0c-31 0-56 24-56 55l0 356c0 31 25 56 56 56l296 0c31 0 57-25 57-56l0-356c0-31-26-55-57-55z m-296 427c-9 0-16-7-16-16l0-356c0-9 7-16 16-16l296 0c10 0 17 7 17 16l0 356c0 9-7 16-17 16z"/>
<glyph unicode="&#57357;" d="M294 346l-34 19-34-18 35-19z m-51-27l-35 18-39-21 37-17z m72-19l36 16-38 21-34-18z m-157-100l91-53 0 110-91 42z m102 269c-120 0-216-97-216-216 0-119 96-216 216-216 119 0 216 97 216 216 0 119-97 216-216 216z m0-350l-124 68 0 138 124 62 123-67 0-133z m1 190l-35-19 34-15 35 16z m9-162l39 22c0 0 0 1 0 1l0 57-8-3c-4-2-7 1-5 5l19 40c2 4 7 6 9 4l20-22c2-2-1-8-5-9l-8-4 0-56 31 18 0 99-92-42 0-110z"/>
<glyph unicode="&#57358;" d="M468 325l-405 0c-5 0-8-4-8-9 0-5 3-9 8-9l405 0c5 0 9 4 9 9 0 5-4 9-9 9m-229-117l34 0c20 2 38 9 53 18l-140 0c15-9 33-16 53-18m224 84l-405 0c-5 0-9-4-9-9 0-5 4-9 9-9l405 0c5 0 9 4 9 9 0 5-4 9-9 9m-5 48c5 0 9 4 9 9 0 5-4 9-9 9l-405 0c-5 0-9-4-9-9 0-5 4-9 9-9z m-290-99l176 0c5 6 9 11 11 18l-198 0c2-7 6-12 11-18m-105 132l405 0c5 0 9 4 9 9 0 5-4 9-9 9l-405 0c-5 0-8-4-8-9 0-5 3-9 8-9m404-114l-96 0c-11-38-58-67-115-67-57 0-104 29-115 67l-96 0c-16 0-29-13-29-29l0-67c0-16 13-29 29-29l422 0c16 0 28 13 28 29l0 67c0 16-12 29-28 29"/>
<glyph unicode="&#57359;" d="M151 370l41 0 0-247-41 0z m61-41l41 0 0-206-41 0z m62-68l41 0 0-138-41 0z m61-77l41 0 0-61-41 0z m-252-79l343 0 0-26-343 0z m0 321l25 0 0-343-25 0z m13 41l-30-46 60 0z m374-375l-46 30 0-60z"/>
<glyph unicode="&#57360;" d="M487 258c0-129-104-233-233-233-128 0-233 104-233 233 0 129 105 233 233 233 129 0 233-104 233-233z m-182 84c-30 0-55-17-55-40 0-4 1-8 3-12l-20-21 34 5c10-7 23-12 38-12 31 0 55 18 55 40 0 23-24 40-55 40m102-160l1 0-14 11 0 165c0 11-8 21-19 21l-242 0c-11 0-20-10-20-21l0-166-10-9c-4-2-6-7-6-12l0-9c0-8 6-14 14-14l286 0c8 0 15 6 15 14l0 9c0 4-2 8-5 11z m-271 173c0 2 1 3 3 3l230 0c2 0 5-1 5-3l0-148-144 0 0 17c0 13-14 22-33 22-18 0-33-9-33-22l0-17-28 0z m239-171l-242 0c-2 0-3 1-3 3 0 2 1 2 3 2l242 0c2 0 4 0 4-2 0-2-2-3-4-3z m-180 70c14 0 25 12 25 26 0 14-11 25-25 25-14 0-26-11-26-25 0-14 12-26 26-26z"/>
<glyph unicode="&#57361;" d="M167 244c21 0 37 17 37 37 0 21-16 38-37 38-21 0-37-17-37-38 0-20 16-37 37-37z m106 29c14-11 34-17 56-17 45 0 81 26 81 59 0 32-36 59-81 59-45 0-81-27-81-59 0-7 2-13 4-19l-29-30z m206-135l0 0-18 15 0 244c0 16-13 28-29 28l-356 0c-16 0-30-12-30-28l0-244-15-13c-5-4-8-10-8-17l0-14c0-12 10-22 21-22l420 0c12 0 22 10 22 22l0 14c0 5-3 10-7 15z m-400 253c0 4 3 6 6 6l338 0c3 0 7-2 7-6l0-217-210 0 0 25c0 20-23 32-50 32-27 0-50-12-50-32l0-25-41 0z m353-250l-356 0c-2 0-5 1-5 4 0 2 3 3 5 3l356 0c3 0 5-1 5-3 0-3-2-4-5-4z"/>
<glyph unicode="&#57362;" d="M331 360c1-37 0-172 0-195 0-5-5-11-11-11-2 0-142 0-142 0-6-1-12-4-12-10 0-7 8-11 12-11 1 0 130 0 160 0 11 0 16 8 16 16 0 28 0 205 0 205-11-4-19 3-23 6z m-75 128c-128 0-231-103-231-230 0-127 103-230 231-230 127 0 230 103 230 230 0 127-103 230-230 230z m89-374l-167 0c-20 0-42 5-42 39 0 20 0 221 0 221 0 26 15 28 25 29 0 0 152 0 154 0 11 0 10-16 18-22 14-9 23-4 35-4 0 0-3 0-1 0 4 0 8-3 8-7 0 0 0-223 0-226 0-17-14-30-30-30z m-167 68l0 190c0 2-5 5-10 5-5 0-9-3-9-5l0-190c0-3 4-5 9-5 5 0 10 2 10 5z"/>
<glyph unicode="&#57363;" d="M117 130c-8 0-14 4-14 8l0 299c0 4 6 7 14 7 8 0 15-3 15-7l0-299c0-4-7-8-15-8m268-69c-48 0-251 0-252 0-8 0-19 7-19 17 0 10 9 15 18 15 0 0 220 0 224 0 9 0 18 10 18 19 0 36 0 248 0 306 5-5 18-16 35-9 0 0 1-279 1-324 0-12-9-24-25-24z m-8 391c-13 8-12 33-29 33-4 0-243 0-243 0-15 0-38-4-38-45 0 0 0-316 0-347 0-54 34-63 65-63l264 0c24 0 46 21 46 48 0 4 0 355 0 355 0 7-5 12-12 12-4 0 2 0 2 0-20 0-34-8-55 7z"/>
<glyph unicode="&#57364;" d="M279 174l0 136c0 2-3 4-6 4-4 0-7-2-7-4l0-136c0-2 3-3 7-3 3 0 6 1 6 3z m110 127c1-26 0-123 0-139 0-4-3-8-8-8-1 0-102 0-102 0-4-1-8-3-8-7 0-5 5-8 9-8 0 0 93 0 115 0 7 0 11 5 11 11 0 20 0 147 0 147-8-3-14 2-17 4z m-135 194c-131 0-237-106-237-237 0-131 106-237 237-237 131 0 237 106 237 237 0 131-106 237-237 237z m-26-363l-68 0c-6 0-11 5-11 11 0 6 5 10 11 10l14 0c13 2 18 10 20 20l34 0z m0 49l-125 0c-9 0-16 7-16 16l0 179c0 8 7 15 16 15l243 0c9 0 16-7 16-15l0-23-25 0 0 13-225 0 0-141 116 0z m171-56l-120 0c-14 0-29 4-29 28 0 14 0 159 0 159-1 18 10 20 17 20 0 0 109 0 111 0 8 0 7-11 13-15 9-7 16-3 25-3 0 0 0 0 0 0 0 0-2 0-1 0 0 0 1 0 1 0 0 0 0 0 0 0 0 0 0 0 0 0 2-1 4-3 4-5 0 0 1-160 1-162 0-13-10-22-22-22z"/>
<glyph unicode="&#57365;" d="M220 215l-148 0 0 184 292 0 0-18 30 0 0 30c0 11-8 19-19 19l-317 0c-11 0-20-8-20-19l0-233c0-11 9-19 20-19l162 0z m252 109c0 3-3 6-7 6-3 0 1 0 1 0-12 0-20-5-33 4-7 5-7 19-17 19-2 0-144 0-144 0-9 0-24-1-24-26 0 0 0-187 0-205 0-32 22-38 40-38l156 0c15 0 28 13 28 29 0 2 0 211 0 211z m-201-176l0 177c0 3 3 5 8 5 5 0 8-2 8-5l0-177c0-2-3-4-8-4-5 0-8 2-8 4z m167-45c-28 0-149 0-150 0-4 0-11 4-11 10 0 6 6 10 11 10 0 0 131 0 133 0 5 0 10 5 10 10 0 22 0 147 0 181 3-3 11-9 21-5 0 0 1-165 1-192 0-7-5-14-15-14z m-287 17l-18 0c-8 0-14-5-14-12 0-8 6-13 14-13l87 0 0 51-43 0c-2-13-9-23-26-26z"/>
<glyph unicode="&#57366;" d="M197 308l59-34 0 72-59 27z m65 107l-57-31 57-27 57 27z m-71-125l-57-31 57-27 57 27z m-63-107l56-34 0 71-56 27z m69-34l56 34 0 64-56-27z m128 224l-56-27 0-72 56 34z m18-224l56 34 0 64-56-27z m-72 34l59-34 0 71-59 27z m-7 285c-116 0-210-94-210-210 0-116 94-209 210-209 115 0 209 93 209 209 0 116-94 210-209 210z m72-337l-73 41-73-41-77 44 0 89 71 37 0 89 78 40 77-44 0-83 75-42 0-86z m0 159l-56-31 56-27 58 27z"/>
<glyph unicode="&#57367;" d="M254 484c-125 0-226-101-226-226 0-125 101-226 226-226 125 0 226 101 226 226 0 125-101 226-226 226z m-99-89c20 39 69 53 107 30 38-22 48-72 21-109-2 1-5 3-9 5 2 3 4 7 6 10 12 23 10 46-4 67-14 20-35 29-60 27-28-2-50-22-56-50-7-26 5-54 29-70 4-3 7-3 11-6-1-1-3-8-4-9-43 18-61 65-41 105z m93-71c0 11 0 21 0 30-1 18-9 29-24 30-13 0-24-10-26-27-2-11-1-22-1-33-18 13-24 31-18 51 5 18 25 32 45 32 20-1 35-13 42-33 6-19 0-37-18-50z m67-216c-21-3-43-4-64-2-9 1-19 9-26 17-26 30-51 67-77 97-13 15-17 22-9 31 9 10 20 9 35-4 10-9 21-18 33-30 0 45-1 86-1 127 0 3 0 6 0 9 1 14 8 22 18 22 14-1 15-12 15-21 0-34 1-67 1-100 0-3 1-6 1-10 1 0 2 0 4 0 0 4 1 7 1 11 0 14 0 27 0 41 0 11 5 18 17 18 13 0 18-5 18-18 0-14 0-28 1-41 0-4 0-7 1-10 2 0 3 0 5 0 0 13 1 25 0 37-1 12 2 20 15 21 13 1 20-7 20-21 1-12 1-23 1-34 0-1 1-2 5-5 0 11 2 20 1 29-1 12 1 20 15 20 11 1 17-6 18-20 0-34 0-73 1-107 0-31-17-53-49-57z"/>
<glyph unicode="&#57368;" d="M306 222c-2 0-4 0-6-1-1 5-2 9-2 13 0 19 0 37 0 55-1 18-7 25-24 25-17 0-23-10-24-24 0-19 1-37 1-55-1-5-2-10-2-15-2 1-4 1-5 1-1 4-1 8-2 13 0 44 0 88-1 133 0 13-2 27-19 28-14 1-24-11-25-29 0-4 0-8 0-13 1-55 1-109 2-168-17 15-31 27-45 39-20 17-35 19-47 6-10-12-5-22 12-42 36-40 68-90 103-130 9-10 23-21 35-23 28-2 58-1 86 3 42 5 65 34 65 77-1 45-1 97-2 142 0 19-8 28-23 28-19-1-22-12-20-28 1-11-1-23-1-39-5 5-7 6-7 7 0 15 0 31-1 46 0 19-10 29-27 28-18-1-22-12-20-28 1-16 0-33-1-49z m-122 60c1 2 4 10 5 12-5 3-9 4-15 8-32 22-48 58-39 94 9 37 38 63 76 67 33 2 61-10 79-37 20-28 21-58 6-89-2-5-5-9-7-15 4-2 8-4 11-6 36 50 23 116-28 147-50 30-116 12-143-41-27-53-2-117 55-140z m70 45c24 17 32 41 24 66-10 28-30 44-57 45-27 0-53-18-60-43-9-27 0-51 23-68 1 15 0 30 2 44 3 23 18 37 36 36 19-1 30-15 31-39 1-13 0-26 1-41z"/>
<glyph unicode="&#57369;" d="M177 214l45 0 0-44-45 0z m0 70l45 0 0-45-45 0z m78 204c-127 0-230-103-230-230 0-127 103-230 230-230 127 0 231 103 231 230 0 127-104 230-231 230z m-5-130l-46-46-22 22 9 9 13-13 36 37z m-20-196l-61 0 0 60 61 0z m0 69l-61 0 0 60 61 0z m0 69l-61 0 0 61 56 0-8-8-40 0 0-46 46 0 0 14 7 8z m106-115l-80 0c-5 0-8 6-8 12 0 7 3 13 8 13l80 0c4 0 7-6 7-13 0-6-3-12-7-12z m0 68l-80 0c-5 0-8 5-8 12 0 7 3 13 8 13l80 0c4 0 7-6 7-13 0-7-3-12-7-12z m0 68l-80 0c-5 0-8 5-8 12 0 7 3 13 8 13l80 0c4 0 7-6 7-13 0-7-3-12-7-12z m14-206l-190 0c-19 0-36 16-36 35l0 229c0 19 17 35 36 35l190 0c20 0 36-16 36-35l0-229c0-19-16-35-36-35z m-190 274c-5 0-10-5-10-10l0-229c0-5 5-10 10-10l190 0c6 0 11 5 11 10l0 229c0 5-5 10-11 10z"/>
<glyph unicode="&#57370;" d="M492 440l-72 0c-5 0-8-4-8-9l0-18c0-5 3-9 8-9l72 0c4 0 8 4 8 9l0 18c0 5-4 9-8 9m-171-102l-308 0 59-150 190 0z m-235-128c-1 0-1 0-2 0-2 0-4 1-4 3l-44 111 236 0c3 0 5-2 5-4 0-3-2-5-5-5l-222 0 38-99c1-2 0-5-2-6m311 221l-17-2-100-264-206 0 0-20 219 0 101 265 3 1c0 1 0 1 0 2z m-163-301c-18 0-33-16-33-35 0-20 15-36 33-36 19 0 34 16 34 36 0 19-15 35-34 35m0-50c-8 0-14 6-14 15 0 8 6 15 14 15 8 0 15-7 15-15 0-9-7-15-15-15m-107 50c-19 0-34-16-34-35 0-20 15-36 34-36 19 0 34 16 34 36 0 19-15 35-34 35m0-50c-8 0-14 6-14 15 0 8 6 15 14 15 8 0 15-7 15-15 0-9-7-15-15-15"/>
<glyph unicode="&#57371;" d="M376 63c0-10-8-18-17-18l-210 0c-10 0-18 8-18 18 0 10 8 17 18 17l22 0c22 4 30 16 34 32l100 0c4-16 12-28 34-32l20 0c9 0 17-7 17-17z m76 405l-397 0c-13 0-24-11-24-25l0-292c0-14 11-26 24-26l397 0c14 0 24 12 24 26l0 292c0 14-10 25-24 25z m-17-271l-363 0 0 231 363 0z m-154 201l-110 0c-16 0-28-13-28-28l0-111c0-15 12-28 28-28l110 0c16 0 29 13 29 28l0 111c0 15-13 28-29 28z m-55-139c-30 0-55 25-55 55 0 31 25 56 55 56 31 0 55-25 55-56 0-30-24-55-55-55z m35 55c0-19-16-34-35-34-19 0-34 15-34 34 0 19 15 35 34 35 19 0 35-16 35-35z m120-50c0-6-5-11-11-11 0 0-48 22-48 28l0 67c0 6 48 27 48 27 6 0 11-4 11-10z"/>
<glyph unicode="&#57372;" d="M255 484c-125 0-226-101-226-226 0-125 101-226 226-226 124 0 226 101 226 226 0 125-102 226-226 226z m68-377l-136 0c-7 0-12 5-12 11 0 6 5 12 12 12l14 0c14 2 20 9 22 20l65 0c2-11 8-18 22-20l13 0c6 0 11-6 11-12 0-6-5-11-11-11z m76 68c0-9-7-16-16-16l-257 0c-9 0-16 7-16 16l0 190c0 8 7 16 16 16l257 0c9 0 16-8 16-16z m-162 142c-20 0-36-16-36-36 0-20 16-36 36-36 19 0 35 16 35 36 0 20-16 36-35 36z m0-58c-13 0-23 10-23 22 0 12 10 22 23 22 12 0 22-10 22-22 0-12-10-22-22-22z m-101 95l0-148 237 0 0 148z m155-109c0-10-8-18-19-18l-71 0c-10 0-18 8-18 18l0 72c0 10 8 18 18 18l71 0c11 0 19-8 19-18z m46 3c0-3-3-6-7-6 0 0-31 14-31 17l0 44c0 4 31 18 31 18 4 0 7-4 7-7z"/>
<glyph unicode="&#57373;" d="M37 335c0-43 33-77 74-77 40 0 73 34 73 77 0 42-33 76-73 76-41 0-74-34-74-76m320-57c-3 5-7 8-11 10l0 51c0 5-4 10-10 10-5 0-9-5-9-10l0-50c-3-1-6-3-9-5l-137-44c-24 0-62 0-68 0-52 0-94-37-94-83l0-124 165 0 0 137 168 68c12 9 15 27 5 40m-157 203l291 0 0-28-291 0z m0-69l291 0 0-28-291 0z m177-69l114 0 0-28-114 0z"/>
<glyph unicode="&#57375;" d="M256 472c-118 0-214-96-214-214 0-118 96-214 214-214 118 0 214 96 214 214 0 118-96 214-214 214z m-29-95l154 0 0-15-154 0z m0-37l154 0 0-15-154 0z m-47 0c21 0 39-18 39-41 0-22-18-40-39-40-22 0-39 18-39 40 0 23 17 41 39 41z m127-92l-88-35 0-73-87 0 0 65c0 25 22 44 49 44 3 0 23 0 36 0l72 24c2 1 3 2 5 2l0 27c0 2 2 5 5 5 3 0 5-3 5-5l0-27c2-1 4-3 6-5 5-7 4-17-3-22z m74 41l-61 0 0 15 61 0z"/>
<glyph unicode="&#57378;" d="M34 177l0-74 19 0 0 68 115 0 0-68 19 0 0 74c0 8-6 14-14 14l-125 0c-7 0-14-6-14-14m158-81l-162 0c-4 0-6-2-6-5l2-10c1-3 2-6 5-6l159 0c3 0 4 2 6 6l2 10c0 3-3 5-6 5z m-151-15c-3 0-5 2-5 4 0 3 2 5 5 5 2 0 4-2 4-5 0-2-2-4-4-4z m280 96l0-74 16 0 0 71 120 0 0-71 16 0 0 74c0 8-6 14-13 14l-126 0c-7 0-13-6-13-14m157-81l-162 0c-3 0-6-2-6-5l2-10c1-3 3-6 6-6l158 0c4 0 5 2 6 6l2 10c0 3-3 5-6 5z m-151-15c-2 0-4 2-4 4 0 3 2 5 4 5 3 0 5-2 5-5 0-2-2-4-5-4z m-183 337l0-107 24 0 0 103 172 0 0-103 23 0 0 107c0 11-8 20-19 20l-180 0c-11 0-20-9-20-20m226-116l-233 0c-4 0-8-4-8-8l3-15c1-4 4-8 8-8l228 0c4 0 6 3 8 8l3 15c0 4-4 8-9 8z m-216-22c-4 0-7 2-7 6 0 4 3 7 7 7 3 0 6-3 6-7 0-4-3-6-6-6z m144-98l-32 19 0 35 14 0-26 26-26-26 14 0 0-35-32-19-12 12 0-37 37 0-8 8 27 15 27-15-8-8 37 0 0 37z"/>
<glyph unicode="&#57379;" d="M497 258c0-133-108-241-241-241-133 0-241 108-241 241 0 133 108 241 241 241 133 0 241-108 241-241z m-429-38l0-64 16 0 0 58 98 0 0-58 17 0 0 64c0 6-6 11-12 11l-107 0c-7 0-12-5-12-11m135-69l-139 0c-3 0-5-3-5-5l1-8c1-3 3-5 5-5l136 0c3 0 4 1 5 4l2 9c0 3-3 5-5 5z m-130-14c-2 0-4 2-4 4 0 2 2 4 4 4 2 0 4-2 4-4 0-2-2-4-4-4z m240 83l0-64 14 0 0 61 103 0 0-61 14 0 0 64c0 6-5 11-12 11l-107 0c-7 0-12-5-12-11m135-69l-139 0c-3 0-5-3-5-5l2-8c0-3 2-5 4-5l136 0c3 0 4 1 5 4l2 9c0 3-2 5-5 5z m-129-14c-3 0-4 2-4 4 0 2 1 4 4 4 2 0 3-2 3-4 0-2-1-4-3-4z m-157 289l0-92 20 0 0 88 147 0 0-88 21 0 0 92c0 9-8 17-17 17l-154 0c-9 0-17-8-17-17m194-101l-200 0c-4 0-7-2-7-6l2-13c2-3 4-6 7-6l195 0c4 0 6 2 7 7l3 12c0 3-4 6-7 6z m-186-18c-3 0-6 3-6 6 0 3 3 5 6 5 3 0 5-2 5-5 0-3-2-6-5-6z m124-83l-28 16 0 29 12 0-22 22-23-22 13 0 0-29-29-16-10 10 0-32 33 0-7 7 23 13 23-13-7-7 33 0 0 32z"/>
<glyph unicode="&#57380;" d="M135 407l42 0 112-286-42 0-32 86-121 0-32-86-39 0z m-29-168l97 0-47 134-1 0z m389-118c-6-3-14-5-24-5-18 0-29 9-29 32-19-22-44-32-73-32-38 0-69 17-69 58 0 47 35 57 70 64 38 7 70 5 70 30 0 30-24 35-46 35-29 0-50-9-52-40l-34 0c2 52 42 70 88 70 37 0 78-9 78-57l0-107c0-16 0-23 11-23 2 0 6 0 10 2l0-27z m-55 107c-14-10-39-10-62-14-23-4-42-12-42-38 0-22 19-30 40-30 45 0 64 28 64 47l0 35z"/>
<glyph unicode="&#57381;" d="M492 169c0-14-11-26-25-26l-426 0c-14 0-26 12-26 26l0 200c0 14 12 25 26 25l426 0c14 0 25-11 25-25z m-242 127c-2 8-4 16-8 22-4 7-9 12-15 17-6 4-12 8-20 10-7 3-15 4-23 4-11 0-22-2-31-6-9-3-17-9-23-16-7-7-12-16-15-26-4-10-6-21-6-34 0-13 2-24 6-34 3-10 8-19 14-26 7-7 15-13 24-17 9-3 20-5 31-5 9 0 17 1 25 3 7 3 14 6 19 11 6 5 11 10 15 17 3 7 6 15 7 24l-31 0c-1-9-5-17-11-21-7-5-15-8-24-8-7 0-13 1-18 4-6 2-10 6-14 11-4 4-7 10-9 17-2 7-3 15-3 24 0 9 1 17 3 24 2 7 5 13 9 17 4 5 8 8 14 11 5 2 11 3 18 3 5 0 9 0 13-1 4-1 7-3 10-5 3-3 6-5 8-9 2-3 4-6 4-11l31 0z m164 0c-1 8-4 16-8 22-3 7-8 12-14 17-6 4-13 8-20 10-7 3-15 4-23 4-11 0-22-2-31-6-9-3-17-9-24-16-6-7-11-16-15-26-3-10-5-21-5-34 0-13 2-24 5-34 4-10 9-19 15-26 7-7 15-13 24-17 9-3 19-5 31-5 9 0 17 1 24 3 8 3 14 6 20 11 6 5 11 10 14 17 4 7 7 15 8 24l-31 0c-1-9-5-17-12-21-6-5-14-8-23-8-7 0-13 1-19 4-5 2-10 6-14 11-3 4-6 10-8 17-3 7-4 15-4 24 0 9 1 17 4 24 2 7 5 13 8 17 4 5 9 8 14 11 6 2 12 3 19 3 4 0 9 0 13-1 3-1 7-3 10-5 3-3 6-5 8-9 2-3 3-6 4-11l30 0z"/>
<glyph unicode="&#57376;" d="M497 143l-486 0 0 238 486 0z m-437 217l-28 0 0-28 28 0z m0-42l-28 0 0-28 28 0z m0-42l-28 0 0-28 28 0z m0-42l-28 0 0-28 28 0z m0-42l-28 0 0-28 28 0z m416 168l-28 0 0-28 28 0z m0-42l-28 0 0-28 28 0z m0-42l-28 0 0-28 28 0z m0-42l-28 0 0-28 28 0z m0-42l-28 0 0-28 28 0z"/>
<glyph unicode="&#57377;" d="M365 233c0-32-26-58-58-58-32 0-58 26-58 58 0 32 26 58 58 58 32 0 58-26 58-58z m-123 159c0 7-5 13-12 13l-101 0c-7 0-13-6-13-13l0-29 126 0z m237-54l0-206c0-14-12-25-25-25l-365 0c-14 0-25 11-25 25l0 206c0 13 11 25 25 25l365 0c13 0 25-12 25-25z m-329-28c0 15-13 28-28 28-15 0-28-13-28-28 0-15 13-27 28-27 15 0 28 12 28 27z m253-77c0 53-43 96-96 96-53 0-96-43-96-96 0-53 43-96 96-96 53 0 96 43 96 96z"/>
<glyph unicode="&#57382;" d="M433 242l-131 113 0-83-128 0 0 113-61 0 0-174 189 0 0-82z"/>
<glyph unicode="&#57383;" d="M373 163l23-47-345 0c-23 0-27 29-27 38 0 9 10 9 10 9z m-322-23c0-7 5-12 11-12 6 0 12 5 12 12 0 6-6 11-12 11-6 0-11-5-11-11z m422-47c-12-6-27 0-33 12l-55 114c-3 8-3 17 2 24-19-6-39-5-58 1-23 8-41 25-52 47-10 22-11 47-3 70 8 23 25 42 47 52 45 22 100 2 122-43 19-42 5-90-32-115 9-1 16-6 20-14l54-114c6-13 1-28-12-34z m-53 216c6 16 5 34-2 49-15 32-54 45-85 30-32-15-46-53-31-85 15-32 54-45 85-30 16 7 27 20 33 36z m-338-3l163 0 0-4-163 0z m163 43l-163 0 0-15 159 0z m-163-59l168 0 0-4-168 0z m0 32l159 0 0-4-159 0z m0-64l184 0 0-4-184 0z m0 16l174 0 0-4-174 0z m-20-75l0 171c0 7 9 12 13 12l178 0c2 6 11 19 18 24l-200 0c-16 0-29-13-29-29l0-198c0 0 219 0 327 0-5 9-7 13-9 20-95 0-298 0-298 0z m20 43l199 0 0-4-199 0z"/>
<glyph unicode="&#57384;" d="M417 286c0-7-3-55-4-75-3 0-5 0-8 1 2 17 3 53 3 65-1 6-3 9-14 9-103-1-209-17-307-22-4-42-5-48-10-97 103 6 203 10 307 22 3 1 5 1 10 2 5-1 8-1 14-3-4-4-12-8-19-10-4-1-25-3-53-5-8-1-15-1-20-2-95-7-249-18-249-18l-28 83 0 3 7 3 3 75-4 8 3 1 29 2 32-52 297 20c0 0 11-4 11-10z m32 114c0-9-4-71-5-80-1-20-8-24-23-28-17-4-322-26-322-26l-29 81 2 2 6-1 3 83-4 7 1 1 252 14 108-43c0 0 11-4 11-10z m-9-9c-1 5-3 9-13 9-104-1-210-17-308-22-3-42-4-49-10-97 103 6 203 10 307 22 6 1 17 4 20 15 3 10 5 59 4 73z m-141-295c-9-37-36-56-76-56-68 0-123 25-123 66 0 40 36 97 100 110 26 6 59-2 85-14 1 0 20 31 65 17 179-58 82 68 81 78 0 5 8 5 8 5 8-16 98-154-90-93-45 15-56-10-54-11 21-11 36-24 37-33 5-35-25-33-33-69z m-33 94c3 2 3 8-1 11-13 8-22 5-29 1-20-20 19-17 30-12z m28-85c4 17 17 28 32 41 4 6 1 20-5 24-8 5-23-9-32-27-15-30-23-42-45-48-71-11-144 11-129 50-17-36-13-60 27-82 30-15 89-25 125-3 13 12 21 24 27 45z"/>
</font>
</defs>
</svg>
